
<svg width="27" height="28" viewBox="0 0 27 28" fill="none" xmlns="http://www.w3.org/2000/svg">
<path d="M13.709 0C11.9636 0 10.2353 0.365215 8.62273 1.07479C7.01019 1.78437 5.545 2.82442 4.31081 4.13554C1.81827 6.78349 0.417969 10.3749 0.417969 14.1196C0.417969 20.3605 4.23249 25.6554 9.50902 27.5333C10.1736 27.6462 10.3862 27.2085 10.3862 26.8273C10.3862 26.5026 10.3862 25.613 10.3862 24.4411C6.70461 25.2883 5.92044 22.5491 5.92044 22.5491C5.30906 20.9112 4.44514 20.4735 4.44514 20.4735C3.23566 19.598 4.53818 19.6263 4.53818 19.6263C5.86728 19.7251 6.5717 21.0806 6.5717 21.0806C7.72802 23.2268 9.6818 22.5914 10.4394 22.2525C10.559 21.3348 10.9046 20.7135 11.2767 20.3605C8.32612 20.0075 5.22931 18.7932 5.22931 13.4137C5.22931 11.8464 5.73437 10.5897 6.59829 9.58723C6.46538 9.23424 6.00019 7.7658 6.7312 5.85965C6.7312 5.85965 7.84764 5.47842 10.3862 7.29985C11.4362 6.98922 12.5792 6.8339 13.709 6.8339C14.8387 6.8339 15.9817 6.98922 17.0317 7.29985C19.5703 5.47842 20.6868 5.85965 20.6868 5.85965C21.4178 7.7658 20.9526 9.23424 20.8197 9.58723C21.6836 10.5897 22.1886 11.8464 22.1886 13.4137C22.1886 18.8074 19.0785 19.9934 16.1146 20.3464C16.5931 20.7841 17.0317 21.6454 17.0317 22.9585C17.0317 24.8506 17.0317 26.3755 17.0317 26.8273C17.0317 27.2085 17.2444 27.6604 17.9222 27.5333C23.1988 25.6413 27 20.3605 27 14.1196C27 12.2654 26.6562 10.4294 25.9883 8.71628C25.3203 7.00321 24.3413 5.44667 23.1071 4.13554C21.8729 2.82442 20.4078 1.78437 18.7952 1.07479C17.1827 0.365215 15.4544 0 13.709 0Z" fill="white"/>
</svg>
