<svg width="32px" height="33px" viewBox="0 0 27 28" fill="none" xmlns="http://www.w3.org/2000/svg">
<path d="M7.90455 0.447998H19.069C23.3221 0.447998 26.7778 4.03017 26.7778 8.43899V20.0122C26.7778 22.1315 25.9656 24.164 24.5199 25.6626C23.0743 27.1612 21.1135 28.0032 19.069 28.0032H7.90455C3.65143 28.0032 0.19577 24.421 0.19577 20.0122V8.43899C0.19577 6.31965 1.00794 4.28711 2.45362 2.78851C3.8993 1.2899 5.86006 0.447998 7.90455 0.447998ZM7.63873 3.20351C6.36974 3.20351 5.15271 3.72608 4.2554 4.65624C3.35808 5.58641 2.85397 6.84799 2.85397 8.16344V20.2877C2.85397 23.0294 4.99382 25.2476 7.63873 25.2476H19.3348C20.6038 25.2476 21.8208 24.7251 22.7182 23.7949C23.6155 22.8647 24.1196 21.6032 24.1196 20.2877V8.16344C24.1196 5.4217 21.9797 3.20351 19.3348 3.20351H7.63873ZM20.4646 5.27015C20.9052 5.27015 21.3278 5.4516 21.6393 5.77457C21.9509 6.09754 22.1259 6.53559 22.1259 6.99235C22.1259 7.4491 21.9509 7.88715 21.6393 8.21012C21.3278 8.5331 20.9052 8.71454 20.4646 8.71454C20.0239 8.71454 19.6014 8.5331 19.2898 8.21012C18.9782 7.88715 18.8032 7.4491 18.8032 6.99235C18.8032 6.53559 18.9782 6.09754 19.2898 5.77457C19.6014 5.4516 20.0239 5.27015 20.4646 5.27015ZM13.4868 7.33679C15.2493 7.33679 16.9396 8.06257 18.1859 9.35447C19.4321 10.6464 20.1323 12.3986 20.1323 14.2256C20.1323 16.0526 19.4321 17.8048 18.1859 19.0967C16.9396 20.3886 15.2493 21.1144 13.4868 21.1144C11.7243 21.1144 10.034 20.3886 8.78769 19.0967C7.54142 17.8048 6.84127 16.0526 6.84127 14.2256C6.84127 12.3986 7.54142 10.6464 8.78769 9.35447C10.034 8.06257 11.7243 7.33679 13.4868 7.33679ZM13.4868 10.0923C12.4293 10.0923 11.4151 10.5278 10.6673 11.3029C9.91956 12.078 9.49947 13.1294 9.49947 14.2256C9.49947 15.3218 9.91956 16.3731 10.6673 17.1482C11.4151 17.9234 12.4293 18.3588 13.4868 18.3588C14.5443 18.3588 15.5585 17.9234 16.3062 17.1482C17.054 16.3731 17.4741 15.3218 17.4741 14.2256C17.4741 13.1294 17.054 12.078 16.3062 11.3029C15.5585 10.5278 14.5443 10.0923 13.4868 10.0923Z" fill="white"/>
</svg>
