<svg width="27" height="29" viewBox="0 0 27 29" fill="none" xmlns="http://www.w3.org/2000/svg">
<path d="M23.6285 0.563354C24.4118 0.563354 25.163 0.885924 25.7169 1.4601C26.2708 2.03428 26.582 2.81303 26.582 3.62504V25.0568C26.582 25.8688 26.2708 26.6476 25.7169 27.2218C25.163 27.7959 24.4118 28.1185 23.6285 28.1185H2.95356C2.17022 28.1185 1.41898 27.7959 0.865077 27.2218C0.311177 26.6476 0 25.8688 0 25.0568V3.62504C0 2.81303 0.311177 2.03428 0.865077 1.4601C1.41898 0.885924 2.17022 0.563354 2.95356 0.563354H23.6285ZM22.8901 24.2914V16.1779C22.8901 14.8544 22.3828 13.585 21.48 12.6491C20.5771 11.7132 19.3526 11.1874 18.0758 11.1874C16.8205 11.1874 15.3585 11.9834 14.6496 13.1775V11.4783H10.5294V24.2914H14.6496V16.7444C14.6496 15.5656 15.5652 14.6012 16.7024 14.6012C17.2507 14.6012 17.7766 14.827 18.1643 15.2289C18.552 15.6308 18.7699 16.1759 18.7699 16.7444V24.2914H22.8901ZM5.7299 9.07484C6.3879 9.07484 7.01895 8.80388 7.48422 8.32157C7.9495 7.83926 8.21089 7.18511 8.21089 6.50302C8.21089 5.07934 7.1033 3.9159 5.7299 3.9159C5.06798 3.9159 4.43318 4.18847 3.96513 4.67365C3.49709 5.15883 3.23414 5.81687 3.23414 6.50302C3.23414 7.9267 4.3565 9.07484 5.7299 9.07484ZM7.78262 24.2914V11.4783H3.69195V24.2914H7.78262Z" fill="white"/>
</svg>
