<?xml version="1.0" encoding="UTF-8"?>
<!DOCTYPE svg PUBLIC "-//W3C//DTD SVG 1.1//EN" "http://www.w3.org/Graphics/SVG/1.1/DTD/svg11.dtd">
<svg xmlns="http://www.w3.org/2000/svg" version="1.1" width="7195px" height="2010px" style="shape-rendering:geometricPrecision; text-rendering:geometricPrecision; image-rendering:optimizeQuality; fill-rule:evenodd; clip-rule:evenodd" xmlns:xlink="http://www.w3.org/1999/xlink">
<g><path style="opacity:0.998" fill="#fefffe" d="M 1169.5,-0.5 C 1195.17,-0.5 1220.83,-0.5 1246.5,-0.5C 1407.59,8.24498 1552.93,60.0783 1682.5,155C 1745.13,201.943 1795.96,259.11 1835,326.5C 1861.71,377.628 1877.71,431.962 1883,489.5C 1886.59,533.458 1889.59,577.458 1892,621.5C 1897.65,729.83 1933.98,826.163 2001,910.5C 2009.33,920.5 2017.67,930.5 2026,940.5C 2050.66,967.162 2076,993.162 2102,1018.5C 2120.31,1045.5 2116.81,1069.34 2091.5,1090C 2074.15,1103.02 2055.48,1114.02 2035.5,1123C 2008.17,1135 1980.83,1147 1953.5,1159C 1943.75,1163.76 1934.25,1168.93 1925,1174.5C 1925.28,1192.02 1929.28,1208.69 1937,1224.5C 1942.49,1236.15 1948.49,1247.48 1955,1258.5C 1966.25,1276.67 1977.25,1295 1988,1313.5C 2000.8,1335.53 1998.46,1355.86 1981,1374.5C 1968.32,1387.18 1954.49,1398.35 1939.5,1408C 1937.32,1410.02 1935.32,1412.18 1933.5,1414.5C 1945.04,1417.07 1956.7,1419.24 1968.5,1421C 1987.41,1426.76 1996.41,1439.6 1995.5,1459.5C 1995.7,1469.7 1993.53,1479.36 1989,1488.5C 1976.4,1509.43 1963.4,1530.1 1950,1550.5C 1924.65,1599.25 1915.65,1650.92 1923,1705.5C 1924.45,1718.2 1926.12,1730.86 1928,1743.5C 1932.89,1780.27 1924.23,1813.27 1902,1842.5C 1875.69,1868.73 1843.85,1883.23 1806.5,1886C 1750.03,1890.09 1695.69,1881.09 1643.5,1859C 1624.4,1849.78 1605.07,1841.12 1585.5,1833C 1491.35,1798.17 1409.51,1816.67 1340,1888.5C 1307.57,1924.01 1282.73,1964.35 1265.5,2009.5C 946.833,2009.5 628.167,2009.5 309.5,2009.5C 360.081,1862.59 413.914,1716.92 471,1572.5C 477.164,1557.5 483.997,1542.83 491.5,1528.5C 508.829,1537.33 527.162,1542.83 546.5,1545C 607.167,1545.67 667.833,1545.67 728.5,1545C 792.219,1535.61 835.386,1500.78 858,1440.5C 861.745,1428.78 864.078,1416.78 865,1404.5C 865.333,1362.83 865.667,1321.17 866,1279.5C 918.5,1237 971,1194.5 1023.5,1152C 1103.17,1151.67 1182.83,1151.33 1262.5,1151C 1332.99,1143.15 1383.49,1107.32 1414,1043.5C 1421.48,1026.24 1426.15,1008.24 1428,989.5C 1428.67,906.5 1428.67,823.5 1428,740.5C 1420.78,680.855 1391.95,635.021 1341.5,603C 1316.81,588.437 1290.14,580.104 1261.5,578C 1182.17,577.667 1102.83,577.333 1023.5,577C 971,534.5 918.5,492 866,449.5C 865.667,407.833 865.333,366.167 865,324.5C 857.596,261.452 824.762,217.619 766.5,193C 753.901,188.267 740.901,185.267 727.5,184C 709.824,183.833 692.157,183.333 674.5,182.5C 784.642,101.112 906.976,45.6121 1041.5,16C 1083.94,7.5293 1126.6,2.0293 1169.5,-0.5 Z"/></g>
<g><path style="opacity:0.99" fill="#fefffe" d="M 282.5,255.5 C 313.835,255.333 345.168,255.5 376.5,256C 392.687,258.521 402.853,267.688 407,283.5C 407.667,317.167 407.667,350.833 407,384.5C 402.726,398.441 393.56,407.274 379.5,411C 346.5,411.667 313.5,411.667 280.5,411C 263.483,406.822 253.983,395.988 252,378.5C 251.045,346.466 251.378,314.466 253,282.5C 257.642,267.686 267.476,258.686 282.5,255.5 Z"/></g>
<g><path style="opacity:0.994" fill="#fefffe" d="M 550.5,272.5 C 608.501,272.333 666.501,272.5 724.5,273C 753.226,279.725 770.392,297.559 776,326.5C 776.167,381.503 776.667,436.503 777.5,491.5C 852.167,551.833 926.833,612.167 1001.5,672.5C 1008.6,669.726 1015.93,667.893 1023.5,667C 1102.5,666.333 1181.5,666.333 1260.5,667C 1295.27,672.469 1319.77,691.302 1334,723.5C 1336.14,729.709 1337.8,736.042 1339,742.5C 1340.63,819.817 1340.96,897.15 1340,974.5C 1337.35,1012.48 1318.85,1039.65 1284.5,1056C 1277.04,1058.78 1269.37,1060.78 1261.5,1062C 1181.83,1062.67 1102.17,1062.67 1022.5,1062C 1015.2,1061.24 1008.2,1059.41 1001.5,1056.5C 926.833,1116.83 852.167,1177.17 777.5,1237.5C 776.976,1294.53 776.142,1351.53 775,1408.5C 767.659,1433.84 751.159,1449.67 725.5,1456C 669.856,1457.63 614.189,1457.96 558.5,1457C 526.04,1453.21 506.207,1435.37 499,1403.5C 498.333,1346.5 498.333,1289.5 499,1232.5C 504.837,1204.99 521.337,1187.49 548.5,1180C 578.138,1178.86 607.804,1178.36 637.5,1178.5C 664.833,1178.67 692.167,1178.83 719.5,1179C 722.224,1179.27 724.891,1179.77 727.5,1180.5C 801.145,1121.36 874.645,1062.02 948,1002.5C 946.301,994.991 944.967,987.324 944,979.5C 943.333,902.833 943.333,826.167 944,749.5C 944.605,742.143 946.105,734.977 948.5,728C 875.328,667.672 801.662,607.839 727.5,548.5C 725.224,549.213 722.891,549.713 720.5,550C 665.167,550.667 609.833,550.667 554.5,550C 523.964,544.649 505.464,526.816 499,496.5C 498.333,439.5 498.333,382.5 499,325.5C 505.236,297.099 522.402,279.432 550.5,272.5 Z"/></g>
<g><path style="opacity:0.991" fill="#fefffe" d="M 317.5,529.5 C 350.502,529.333 383.502,529.5 416.5,530C 431.591,533.425 441.091,542.591 445,557.5C 445.333,589.5 445.667,621.5 446,653.5C 487.833,687.333 529.667,721.167 571.5,755C 575.133,754.578 578.8,753.911 582.5,753C 605.667,752.833 628.833,752.667 652,752.5C 676.873,752.357 701.706,752.857 726.5,754C 748.201,760.571 760.701,775.071 764,797.5C 764.667,842.167 764.667,886.833 764,931.5C 760.156,955.677 746.322,970.51 722.5,976C 675.5,976.667 628.5,976.667 581.5,976C 578.18,974.884 574.847,974.217 571.5,974C 529.833,1007.83 488.167,1041.67 446.5,1075.5C 445.667,1107.49 445.167,1139.49 445,1171.5C 441.167,1186 432,1195.17 417.5,1199C 383.833,1199.67 350.167,1199.67 316.5,1199C 302.44,1195.27 293.274,1186.44 289,1172.5C 288.333,1138.17 288.333,1103.83 289,1069.5C 292.509,1055.32 301.342,1046.49 315.5,1043C 332.634,1041.89 349.801,1041.39 367,1041.5C 384.52,1041.73 402.02,1041.89 419.5,1042C 460.058,1008.47 500.892,975.307 542,942.5C 541.252,938.272 540.586,933.939 540,929.5C 539.333,886.167 539.333,842.833 540,799.5C 540.325,795.384 541.159,791.384 542.5,787.5C 501.54,754.011 460.54,720.511 419.5,687C 386.527,687.623 353.527,687.623 320.5,687C 303.975,684.665 293.475,675.498 289,659.5C 288.333,625.167 288.333,590.833 289,556.5C 293.527,542.137 303.027,533.137 317.5,529.5 Z"/></g>
<g><path style="opacity:0.991" fill="#fefffe" d="M -0.5,688.5 C -0.5,650.833 -0.5,613.167 -0.5,575.5C 3.14889,557.386 13.8156,545.553 31.5,540C 51.7925,538.863 72.1259,538.363 92.5,538.5C 113.202,538.369 133.868,538.869 154.5,540C 171.715,545.26 181.882,556.76 185,574.5C 185.667,612.5 185.667,650.5 185,688.5C 181.907,706.26 171.74,717.76 154.5,723C 134.049,724.144 113.549,724.644 93,724.5C 72.1261,724.638 51.2927,724.138 30.5,723C 13.3563,717.502 3.02296,706.002 -0.5,688.5 Z"/></g>
<g><path style="opacity:0.987" fill="#fefffe" d="M 2559.5,547.5 C 2560.12,547.611 2560.62,547.944 2561,548.5C 2617.55,691.32 2674.38,833.986 2731.5,976.5C 2775.3,840.983 2818.63,705.316 2861.5,569.5C 2890.5,569.5 2919.5,569.5 2948.5,569.5C 2879.51,776.983 2810.01,984.317 2740,1191.5C 2679.67,1041.83 2619.33,892.167 2559,742.5C 2499.26,892.31 2439.26,1041.98 2379,1191.5C 2308.99,984.317 2239.49,776.983 2170.5,569.5C 2199.51,569.167 2228.51,569.5 2257.5,570.5C 2301.3,706.402 2344.8,842.402 2388,978.5C 2445.65,835.037 2502.82,691.37 2559.5,547.5 Z"/></g>
<g><path style="opacity:0.987" fill="#fefffe" d="M 3253.5,547.5 C 3254.38,547.369 3255.04,547.702 3255.5,548.5C 3369.58,754.994 3483.91,961.328 3598.5,1167.5C 3567.6,1168.83 3536.77,1168.83 3506,1167.5C 3422.51,1013.85 3338.51,860.513 3254,707.5C 3169.58,860.673 3085.41,1014.01 3001.5,1167.5C 2970.84,1168.67 2940.17,1168.83 2909.5,1168C 3024.4,961.277 3139.06,754.444 3253.5,547.5 Z"/></g>
<g><path style="opacity:0.987" fill="#fefffe" d="M 3710.5,547.5 C 3713.39,548.882 3715.89,550.882 3718,553.5C 3854.67,699.5 3991.33,845.5 4128,991.5C 4128.5,850.834 4128.67,710.167 4128.5,569.5C 4155.83,569.5 4183.17,569.5 4210.5,569.5C 4210.67,776.834 4210.5,984.167 4210,1191.5C 4071,1043.17 3932,894.833 3793,746.5C 3792.5,887.166 3792.33,1027.83 3792.5,1168.5C 3765.17,1168.5 3737.83,1168.5 3710.5,1168.5C 3710.5,961.5 3710.5,754.5 3710.5,547.5 Z"/></g>
<g><path style="opacity:0.988" fill="#fefffe" d="M 4648.5,559.5 C 4740.99,554.598 4820.66,583.765 4887.5,647C 4875.03,669.628 4862.37,692.128 4849.5,714.5C 4814.51,683.496 4774.51,660.996 4729.5,647C 4640.35,626.279 4564.51,649.112 4502,715.5C 4445.76,784.715 4431.09,862.049 4458,947.5C 4486.66,1020.83 4538.49,1069.33 4613.5,1093C 4662.77,1103.41 4711.77,1102.07 4760.5,1089C 4790.27,1080.54 4817.1,1066.7 4841,1047.5C 4841.5,1011.83 4841.67,976.168 4841.5,940.5C 4782.17,940.5 4722.83,940.5 4663.5,940.5C 4663.5,916.167 4663.5,891.833 4663.5,867.5C 4750.17,867.5 4836.83,867.5 4923.5,867.5C 4923.67,939.167 4923.5,1010.83 4923,1082.5C 4892.77,1113.89 4857.27,1137.72 4816.5,1154C 4753.98,1176.91 4689.65,1184.24 4623.5,1176C 4512.82,1155.76 4433.32,1094.93 4385,993.5C 4356.31,925.15 4351.64,855.15 4371,783.5C 4403.28,682.885 4468.78,613.719 4567.5,576C 4593.96,567.129 4620.96,561.629 4648.5,559.5 Z"/></g>
<g><path style="opacity:0.988" fill="#fefffe" d="M 5079.5,569.5 C 5107.17,569.5 5134.83,569.5 5162.5,569.5C 5162.5,656.833 5162.5,744.167 5162.5,831.5C 5262.5,831.5 5362.5,831.5 5462.5,831.5C 5462.5,744.167 5462.5,656.833 5462.5,569.5C 5490.17,569.5 5517.83,569.5 5545.5,569.5C 5545.5,769.167 5545.5,968.833 5545.5,1168.5C 5517.83,1168.5 5490.17,1168.5 5462.5,1168.5C 5462.5,1081.5 5462.5,994.5 5462.5,907.5C 5362.5,907.5 5262.5,907.5 5162.5,907.5C 5162.5,994.5 5162.5,1081.5 5162.5,1168.5C 5134.83,1168.5 5107.17,1168.5 5079.5,1168.5C 5079.5,968.833 5079.5,769.167 5079.5,569.5 Z"/></g>
<g><path style="opacity:0.984" fill="#fefffe" d="M 5723.5,569.5 C 5751.17,569.5 5778.83,569.5 5806.5,569.5C 5806.5,744.167 5806.5,918.833 5806.5,1093.5C 5903.17,1093.5 5999.83,1093.5 6096.5,1093.5C 6096.5,1118.5 6096.5,1143.5 6096.5,1168.5C 5972.17,1168.5 5847.83,1168.5 5723.5,1168.5C 5723.5,968.833 5723.5,769.167 5723.5,569.5 Z"/></g>
<g><path style="opacity:0.978" fill="#fefffe" d="M 6214.5,569.5 C 6333.5,569.5 6452.5,569.5 6571.5,569.5C 6571.5,595.167 6571.5,620.833 6571.5,646.5C 6452.5,646.5 6333.5,646.5 6214.5,646.5C 6214.5,620.833 6214.5,595.167 6214.5,569.5 Z"/></g>
<g><path style="opacity:0.984" fill="#fefffe" d="M 7194.5,569.5 C 7194.5,570.167 7194.5,570.833 7194.5,571.5C 7119.86,680.755 7045.69,790.422 6972,900.5C 6971.5,989.833 6971.33,1079.17 6971.5,1168.5C 6943.5,1168.5 6915.5,1168.5 6887.5,1168.5C 6887.67,1079.17 6887.5,989.833 6887,900.5C 6813.03,790.363 6738.86,680.363 6664.5,570.5C 6694.17,569.167 6723.83,569.167 6753.5,570.5C 6812,657.5 6870.5,744.5 6929,831.5C 6988.03,744.637 7046.86,657.637 7105.5,570.5C 7135.16,569.5 7164.83,569.167 7194.5,569.5 Z"/></g>
<g><path style="opacity:0.988" fill="#fefffe" d="M 319.5,782.5 C 341.503,782.333 363.503,782.5 385.5,783C 395.558,785.391 402.058,791.557 405,801.5C 405.667,823.833 405.667,846.167 405,868.5C 403.014,877.818 397.514,883.985 388.5,887C 364.833,887.667 341.167,887.667 317.5,887C 309.333,884.167 303.833,878.667 301,870.5C 300.333,846.833 300.333,823.167 301,799.5C 304.215,790.445 310.382,784.778 319.5,782.5 Z"/></g>
<g><path style="opacity:0.987" fill="#fefffe" d="M 6214.5,832.5 C 6329.17,832.5 6443.83,832.5 6558.5,832.5C 6558.5,856.833 6558.5,881.167 6558.5,905.5C 6471.5,905.5 6384.5,905.5 6297.5,905.5C 6297.5,968.167 6297.5,1030.83 6297.5,1093.5C 6388.83,1093.5 6480.17,1093.5 6571.5,1093.5C 6571.5,1118.5 6571.5,1143.5 6571.5,1168.5C 6452.5,1168.5 6333.5,1168.5 6214.5,1168.5C 6214.5,1056.5 6214.5,944.5 6214.5,832.5 Z"/></g>
<g><path style="opacity:0.991" fill="#fefffe" d="M 53.5,885.5 C 88.8349,885.333 124.168,885.5 159.5,886C 178,889.833 189.167,901 193,919.5C 193.667,955.167 193.667,990.833 193,1026.5C 188.821,1044.01 177.987,1054.85 160.5,1059C 124.167,1059.67 87.8333,1059.67 51.5,1059C 34.2167,1054.72 23.7167,1043.88 20,1026.5C 19.3333,990.5 19.3333,954.5 20,918.5C 24.4626,900.536 35.6293,889.536 53.5,885.5 Z"/></g>
<g><path style="opacity:0.992" fill="#fefffe" d="M 261.5,1293.5 C 291.835,1293.33 322.168,1293.5 352.5,1294C 364.746,1297.91 372.579,1306.08 376,1318.5C 376.667,1347.83 376.667,1377.17 376,1406.5C 372.833,1420.33 364.333,1428.83 350.5,1432C 321.5,1432.67 292.5,1432.67 263.5,1432C 250.541,1429.04 242.041,1421.21 238,1408.5C 237.333,1378.17 237.333,1347.83 238,1317.5C 241.358,1304.98 249.191,1296.98 261.5,1293.5 Z"/></g>
<g><path style="opacity:0.967" fill="#fefffe" d="M 2372.5,1347.5 C 2402.84,1346.75 2431.51,1353.25 2458.5,1367C 2460.33,1367.9 2461.66,1369.23 2462.5,1371C 2459.55,1376.41 2456.71,1381.91 2454,1387.5C 2452.78,1389.97 2451.12,1391.97 2449,1393.5C 2422.95,1379.29 2395.11,1373.12 2365.5,1375C 2351.84,1376.56 2342.01,1383.39 2336,1395.5C 2332.78,1405.44 2334.94,1413.94 2342.5,1421C 2350.18,1425.11 2358.18,1428.45 2366.5,1431C 2390.21,1436.76 2413.54,1443.76 2436.5,1452C 2465.65,1466.83 2475.15,1489.99 2465,1521.5C 2457.2,1538.34 2444.37,1549.5 2426.5,1555C 2381.34,1565.98 2338.34,1560.31 2297.5,1538C 2295.41,1536.96 2293.75,1535.46 2292.5,1533.5C 2297.1,1525.97 2301.93,1518.63 2307,1511.5C 2337.25,1528.86 2369.75,1536.02 2404.5,1533C 2417.24,1531.22 2427.08,1525.06 2434,1514.5C 2440.26,1495.6 2434.1,1482.77 2415.5,1476C 2388.93,1469.11 2362.6,1461.44 2336.5,1453C 2304.9,1440.96 2294.4,1418.79 2305,1386.5C 2314.26,1367.25 2329.43,1355.42 2350.5,1351C 2357.93,1349.5 2365.26,1348.33 2372.5,1347.5 Z"/></g>
<g><path style="opacity:0.967" fill="#fefffe" d="M 2755.5,1347.5 C 2793.46,1346.15 2824.46,1359.99 2848.5,1389C 2840,1394.42 2831.33,1399.59 2822.5,1404.5C 2797.46,1377.32 2767.46,1370.15 2732.5,1383C 2695.27,1402.96 2680.77,1433.8 2689,1475.5C 2698.86,1506.36 2719.69,1524.86 2751.5,1531C 2770,1533.57 2787.33,1530.23 2803.5,1521C 2810.3,1515.86 2816.8,1510.36 2823,1504.5C 2831.9,1509.03 2840.4,1514.2 2848.5,1520C 2817.37,1555.37 2778.71,1567.71 2732.5,1557C 2688.78,1542.62 2662.95,1512.78 2655,1467.5C 2651.77,1422.45 2668.94,1387.62 2706.5,1363C 2721.91,1354.47 2738.25,1349.3 2755.5,1347.5 Z"/></g>
<g><path style="opacity:0.962" fill="#fefffe" d="M 3574.5,1347.5 C 3595.21,1346.28 3612.05,1353.61 3625,1369.5C 3633.86,1387.63 3633.53,1405.63 3624,1423.5C 3620.17,1428.67 3615.67,1433.17 3610.5,1437C 3602.27,1442.28 3593.61,1446.78 3584.5,1450.5C 3583.48,1451 3583.31,1451.67 3584,1452.5C 3599.3,1470.13 3614.96,1487.47 3631,1504.5C 3641.15,1491.49 3648.98,1477.16 3654.5,1461.5C 3660.92,1464.31 3667.25,1467.31 3673.5,1470.5C 3673.83,1471.17 3674.17,1471.83 3674.5,1472.5C 3668.46,1490.58 3659.8,1507.24 3648.5,1522.5C 3655.17,1530.17 3661.83,1537.83 3668.5,1545.5C 3661.5,1550.83 3654.5,1556.17 3647.5,1561.5C 3641.51,1555.34 3635.68,1549.01 3630,1542.5C 3599.55,1565.75 3566.05,1571.25 3529.5,1559C 3495.18,1543.87 3484.35,1518.71 3497,1483.5C 3509.24,1466.61 3525.07,1454.11 3544.5,1446C 3535.72,1436.94 3528.56,1426.77 3523,1415.5C 3517.57,1375.76 3534.74,1353.09 3574.5,1347.5 Z M 3575.5,1368.5 C 3601.08,1369.7 3611.24,1382.7 3606,1407.5C 3602.5,1415 3597,1420.5 3589.5,1424C 3582.05,1427.23 3574.71,1430.73 3567.5,1434.5C 3559.81,1427.46 3553.31,1419.46 3548,1410.5C 3542.91,1387.1 3552.08,1373.1 3575.5,1368.5 Z M 3559.5,1464.5 C 3576.75,1483.26 3593.92,1502.26 3611,1521.5C 3610.45,1524.09 3608.95,1526.26 3606.5,1528C 3582.12,1544.51 3557.45,1545.18 3532.5,1530C 3515.54,1511.36 3516.87,1494.02 3536.5,1478C 3543.9,1472.97 3551.57,1468.47 3559.5,1464.5 Z"/></g>
<g><path style="opacity:0.967" fill="#fefffe" d="M 4873.5,1347.5 C 4911.46,1346.15 4942.46,1359.99 4966.5,1389C 4958,1394.42 4949.33,1399.59 4940.5,1404.5C 4915.46,1377.32 4885.46,1370.15 4850.5,1383C 4813.26,1402.98 4798.76,1433.82 4807,1475.5C 4816.86,1506.36 4837.69,1524.86 4869.5,1531C 4891.27,1533.97 4910.94,1528.97 4928.5,1516C 4932.38,1511.79 4936.55,1507.95 4941,1504.5C 4949.9,1509.03 4958.4,1514.2 4966.5,1520C 4935.37,1555.37 4896.71,1567.71 4850.5,1557C 4806.78,1542.61 4780.94,1512.78 4773,1467.5C 4769.77,1422.45 4786.94,1387.62 4824.5,1363C 4839.91,1354.47 4856.25,1349.3 4873.5,1347.5 Z"/></g>
<g><path style="opacity:0.964" fill="#fefffe" d="M 3040.5,1350.5 C 3050.83,1350.5 3061.17,1350.5 3071.5,1350.5C 3071.5,1419.5 3071.5,1488.5 3071.5,1557.5C 3061.17,1557.5 3050.83,1557.5 3040.5,1557.5C 3040.5,1488.5 3040.5,1419.5 3040.5,1350.5 Z"/></g>
<g><path style="opacity:0.966" fill="#fefffe" d="M 4071.5,1350.5 C 4127.5,1350.5 4183.5,1350.5 4239.5,1350.5C 4239.5,1359.5 4239.5,1368.5 4239.5,1377.5C 4216.83,1377.5 4194.17,1377.5 4171.5,1377.5C 4171.5,1437.5 4171.5,1497.5 4171.5,1557.5C 4161.17,1557.5 4150.83,1557.5 4140.5,1557.5C 4140.5,1497.5 4140.5,1437.5 4140.5,1377.5C 4117.5,1377.5 4094.5,1377.5 4071.5,1377.5C 4071.5,1368.5 4071.5,1359.5 4071.5,1350.5 Z"/></g>
<g><path style="opacity:0.97" fill="#fefffe" d="M 4427.5,1350.5 C 4480.17,1350.5 4532.83,1350.5 4585.5,1350.5C 4585.5,1359.83 4585.5,1369.17 4585.5,1378.5C 4543.17,1378.5 4500.83,1378.5 4458.5,1378.5C 4458.5,1398.83 4458.5,1419.17 4458.5,1439.5C 4497.5,1439.5 4536.5,1439.5 4575.5,1439.5C 4575.5,1448.5 4575.5,1457.5 4575.5,1466.5C 4536.5,1466.5 4497.5,1466.5 4458.5,1466.5C 4458.5,1487.83 4458.5,1509.17 4458.5,1530.5C 4501.83,1530.5 4545.17,1530.5 4588.5,1530.5C 4588.5,1539.5 4588.5,1548.5 4588.5,1557.5C 4534.83,1557.5 4481.17,1557.5 4427.5,1557.5C 4427.5,1488.5 4427.5,1419.5 4427.5,1350.5 Z"/></g>
<g><path style="opacity:0.965" fill="#fefffe" d="M 5158.5,1350.5 C 5168.83,1350.5 5179.17,1350.5 5189.5,1350.5C 5189.5,1380.17 5189.5,1409.83 5189.5,1439.5C 5230.5,1439.5 5271.5,1439.5 5312.5,1439.5C 5312.5,1409.83 5312.5,1380.17 5312.5,1350.5C 5322.83,1350.5 5333.17,1350.5 5343.5,1350.5C 5343.5,1419.5 5343.5,1488.5 5343.5,1557.5C 5333.17,1557.5 5322.83,1557.5 5312.5,1557.5C 5312.5,1527.5 5312.5,1497.5 5312.5,1467.5C 5271.5,1467.5 5230.5,1467.5 5189.5,1467.5C 5189.5,1497.5 5189.5,1527.5 5189.5,1557.5C 5179.17,1557.5 5168.83,1557.5 5158.5,1557.5C 5158.5,1488.5 5158.5,1419.5 5158.5,1350.5 Z"/></g>
</svg>
