<svg width="32" height="29" viewBox="0 0 32 29" fill="none" xmlns="http://www.w3.org/2000/svg">
<path d="M31.8327 4.23104C30.6708 4.79835 29.4184 5.17116 28.1208 5.34946C29.4486 4.49038 30.4747 3.12883 30.9575 1.49173C29.7051 2.30218 28.3169 2.86949 26.8533 3.19367C25.6613 1.7997 23.9864 0.989258 22.0852 0.989258C18.5393 0.989258 15.6422 4.10137 15.6422 7.94288C15.6422 8.49398 15.7026 9.02888 15.8082 9.53136C10.4365 9.2396 5.65331 6.46787 2.46953 2.26976C1.91124 3.29092 1.59437 4.49038 1.59437 5.75468C1.59437 8.16981 2.72604 10.3094 4.47637 11.5251C3.40505 11.5251 2.40918 11.2009 1.53401 10.7146C1.53401 10.7146 1.53401 10.7146 1.53401 10.7632C1.53401 14.1347 3.76718 16.955 6.72462 17.5872C6.18142 17.7493 5.60804 17.8303 5.01957 17.8303C4.61217 17.8303 4.20476 17.7817 3.81245 17.7006C4.62725 20.44 6.99622 22.4823 9.84804 22.5309C7.64505 24.4111 4.85359 25.5133 1.80562 25.5133C1.29259 25.5133 0.779566 25.4809 0.266541 25.4161C3.13345 27.3936 6.54355 28.5444 10.1951 28.5444C22.0852 28.5444 28.6187 17.9438 28.6187 8.75333C28.6187 8.44536 28.6187 8.1536 28.6036 7.84563C29.8711 6.87309 30.9575 5.64122 31.8327 4.23104Z" fill="white"/>
</svg>
